<?xml version="1.0" encoding="UTF-8" standalone="no"?>
<!DOCTYPE svg PUBLIC "-//W3C//DTD SVG 1.1//EN" "http://www.w3.org/Graphics/SVG/1.1/DTD/svg11.dtd">
<svg width="100%" height="100%" viewBox="0 0 515 391" version="1.1" xmlns="http://www.w3.org/2000/svg" xmlns:xlink="http://www.w3.org/1999/xlink" xmlSpace="preserve" xmlnsSerif="http://www.serif.com/" style="fill-rule:evenodd;clip-rule:evenodd;stroke-linejoin:round;stroke-miterlimit:2;">
    <g id="Ebene_1-2">
        <g>
            <path d="M0,211.36C0.27,211.06 0.63,210.81 0.81,210.47C1.85,208.47 3.56,207.68 5.72,207.67C9.37,207.66 13.01,207.67 16.66,207.67L29.05,207.67C29.95,207.67 30.83,207.7 31.69,208.03C33.53,208.73 34.64,210 34.82,211.99C34.89,212.74 34.87,213.5 34.87,214.26L34.87,277.42C34.87,278.3 34.75,279.2 35.01,279.97C35.16,280.09 35.2,280.14 35.26,280.17C35.32,280.2 35.39,280.23 35.46,280.23C57.82,280.25 80.19,280.26 102.55,280.28C103.03,280.28 103.51,280.28 103.99,280.26C104.12,280.26 104.26,280.22 104.39,280.17C104.45,280.15 104.49,280.09 104.68,279.92C104.71,279.52 104.78,278.98 104.78,278.45C104.79,276.32 104.78,274.18 104.78,272.05L104.78,214.46C104.78,213.77 104.81,213.08 104.78,212.4C104.7,209.97 106.52,208.1 109.12,207.73C109.66,207.65 110.22,207.68 110.77,207.68L133.27,207.68C134.24,207.68 135.19,207.68 136.11,208.06C137.93,208.8 138.99,210.11 139.17,212.09C139.22,212.64 139.19,213.19 139.19,213.74L139.19,385.67C139.22,387.62 138.42,389.11 136.78,390.17C136.44,390.39 136.14,390.69 135.83,390.95L108.17,390.95C107.67,390.59 107.16,390.24 106.68,389.85C105.5,388.89 104.78,387.69 104.79,386.13L104.79,313.09C104.79,312.28 104.88,311.46 104.66,310.66C104.39,310.58 104.2,310.47 104.01,310.47L35.7,310.47C35.51,310.47 35.32,310.58 35.08,310.66C34.83,311.53 34.93,312.43 34.93,313.31L34.93,383.87C34.93,384.56 34.96,385.25 34.91,385.93C34.79,387.67 34.12,389.11 32.61,390.09C32.29,390.3 32.07,390.65 31.8,390.94L3.72,390.94C2.48,389.93 1.15,389.02 0.53,387.44C0.48,387.32 0.19,387.29 0.01,387.22L0.01,211.37L0,211.36Z" style="fill:white;fill-rule:nonzero;"/>
            <path d="M170.93,390.93C170.51,390.59 170.09,390.25 169.66,389.91C168.34,388.87 167.6,387.54 167.63,385.83C167.64,385.28 167.63,384.73 167.63,384.18L167.63,217.44C167.63,216.68 167.6,215.92 167.65,215.17C167.83,212.7 169.01,210.86 171.29,209.85C172.29,209.41 173.36,209.07 174.43,208.91C177.55,208.42 180.68,208 183.82,207.63C187.37,207.22 190.93,206.87 194.48,206.54C196.67,206.34 198.87,206.2 201.06,206.08C211.09,205.55 221.13,205.36 231.17,205.63C235.08,205.74 238.98,206.18 242.86,206.73C248.45,207.53 253.93,208.73 259.28,210.54C265.17,212.54 270.71,215.23 275.71,218.97C284.71,225.71 290.35,234.66 293.1,245.5C294.49,251 295.01,256.6 295.11,262.25C295.19,266.66 294.97,271.05 294.37,275.42C293,285.37 289.52,294.43 282.91,302.13C278.17,307.65 272.38,311.76 265.83,314.85C259.84,317.68 253.53,319.53 247.02,320.77C237.58,322.57 228.05,323.02 218.48,322.72C214.91,322.61 211.34,322.27 207.78,322.07C206,321.97 204.22,321.95 202.34,321.89C202.23,322.39 202.11,322.77 202.08,323.15C202.04,323.77 202.06,324.39 202.06,325.01L202.06,384.03C202.06,384.72 202.07,385.41 202.04,386.09C201.96,387.77 201.3,389.14 199.89,390.12C199.56,390.35 199.29,390.66 198.99,390.93L170.91,390.93L170.93,390.93ZM202.35,293.67C202.68,293.75 202.87,293.84 203.07,293.85C206.71,294 210.35,294.17 213.99,294.27C217.08,294.36 220.18,294.34 223.27,294.4C227.81,294.48 232.34,294.31 236.82,293.51C239.94,292.96 243,292.2 245.91,290.95C250.85,288.83 254.87,285.63 257.44,280.8C259.21,277.48 260.12,273.91 260.54,270.19C260.86,267.38 260.91,264.57 260.84,261.75C260.76,258.72 260.45,255.72 259.66,252.78C257.88,246.16 253.99,241.25 247.78,238.28C245.99,237.43 244.11,236.72 242.21,236.16C237.24,234.7 232.11,234.15 226.95,234.08C222.69,234.02 218.43,233.97 214.17,234.3C210.61,234.57 207.04,234.69 203.47,234.89C203.08,234.91 202.69,235.04 202.3,235.13C202.24,235.48 202.15,235.75 202.15,236.02C202.15,255 202.15,273.98 202.17,292.96C202.17,293.16 202.27,293.36 202.35,293.68L202.35,293.67Z" style="fill:white;fill-rule:nonzero;"/>
            <path d="M0,5.37C0.27,5.08 0.62,4.83 0.79,4.49C1.74,2.56 3.28,1.65 5.42,1.66C9.07,1.68 12.71,1.64 16.36,1.67C19.47,1.69 21.31,3.54 21.41,6.68C21.43,7.23 21.41,7.78 21.41,8.33L21.41,67.97C21.41,68.78 21.45,69.59 21.48,70.52C22.14,70.55 22.68,70.59 23.21,70.59C48.27,70.8 96.66,70.67 98.64,70.38C98.67,69.68 98.72,68.94 98.72,68.2L98.72,7.93C98.72,7.24 98.69,6.55 98.79,5.87C99.16,3.26 100.92,1.71 103.55,1.66C105.41,1.62 107.27,1.66 109.12,1.66C111.05,1.66 112.97,1.63 114.9,1.66C117.79,1.71 119.62,3.56 119.71,6.46C119.73,6.94 119.71,7.42 119.71,7.9L119.71,160.83C119.71,161.45 119.74,162.07 119.69,162.69C119.52,165.24 117.7,167.07 115.15,167.11C111.23,167.17 107.31,167.16 103.38,167.11C100.93,167.08 99.24,165.56 98.83,163.15C98.69,162.34 98.71,161.51 98.71,160.68L98.71,89.01C98.18,88.93 97.79,88.83 97.4,88.81C96.92,88.78 96.44,88.81 95.96,88.81L24.13,88.81C23.32,88.81 22.5,88.85 21.56,88.87C21.5,89.36 21.42,89.74 21.4,90.13C21.38,90.75 21.4,91.37 21.4,91.99L21.4,160.71C21.4,161.4 21.44,162.09 21.37,162.77C21.12,165.32 19.31,167.09 16.74,167.14C12.89,167.21 9.03,167.18 5.18,167.15C3.23,167.14 1.75,166.25 0.87,164.49C0.66,164.06 0.58,163.56 -0.01,163.46C0,110.77 0,58.07 0,5.37Z" style="fill:white;fill-rule:nonzero;"/>
            <path d="M514.45,165.53C513.77,166.73 512.73,167.15 511.37,167.15C505.45,167.12 499.54,167.14 493.62,167.13C491.56,167.13 489.9,166.3 488.59,164.73C486.64,162.41 484.69,160.1 482.74,157.79C471.33,144.2 459.92,130.61 448.51,117.03C441.21,108.34 433.92,99.65 426.62,90.96C426.18,90.44 425.73,89.93 425.3,89.45C424.76,89.63 424.88,90.02 424.87,90.33C424.85,90.95 424.87,91.57 424.87,92.19L424.87,160.91C424.87,161.6 424.9,162.29 424.85,162.97C424.66,165.48 422.92,167.11 420.38,167.13C416.39,167.16 412.4,167.16 408.41,167.13C405.93,167.11 404.28,165.58 404.02,163.11C403.94,162.36 403.98,161.6 403.98,160.84L403.98,7.93C403.98,7.38 403.97,6.83 403.98,6.28C404.07,3.36 405.73,1.7 408.65,1.68C412.5,1.65 416.36,1.7 420.21,1.66C421.69,1.64 422.89,2.15 423.86,3.24C424.48,3.93 424.86,4.72 424.86,5.66C424.86,6.28 424.87,6.9 424.87,7.52L424.87,76.79C425.52,77.08 425.7,76.59 425.94,76.32C428.46,73.5 430.97,70.67 433.47,67.83C443.39,56.6 453.31,45.36 463.24,34.12C471.84,24.38 480.44,14.64 489.05,4.9C489.23,4.69 489.44,4.51 489.61,4.29C491.07,2.42 492.93,1.61 495.34,1.65C500.43,1.75 505.52,1.68 510.61,1.68C511.51,1.68 512.4,1.68 513.21,2.15C513.72,2.44 514.03,2.83 514.1,3.44C514.25,4.79 514.07,5.94 513.08,7.04C501.06,20.27 489.08,33.54 477.09,46.8C466.9,58.07 456.7,69.33 446.51,80.6C446.1,81.05 445.74,81.54 445.27,82.1C445.87,82.83 446.42,83.53 446.99,84.2C456.68,95.55 466.37,106.9 476.06,118.25C486.2,130.12 496.34,141.99 506.48,153.85C508.31,155.99 510.16,158.13 511.96,160.29C512.82,161.32 513.62,162.42 514.44,163.49L514.44,165.55L514.45,165.53Z" style="fill:white;fill-rule:nonzero;"/>
            <path d="M206.85,0C207.45,0.13 208.04,0.3 208.64,0.37C217.59,1.38 223.85,5.97 227.05,14.44C228.19,17.45 228.99,20.6 229.89,23.69C236.45,46.32 243,68.94 249.56,91.57C256.29,114.79 263.01,138.02 269.73,161.24C269.94,161.96 270.09,162.72 270.1,163.46C270.12,165.48 268.92,166.82 266.92,167.1C266.45,167.16 265.96,167.13 265.48,167.13C261.56,167.13 257.63,167.04 253.71,167.16C250.76,167.26 249.35,165.79 248.65,163.32C247.45,159.09 246.22,154.87 245,150.65C241.26,137.72 237.45,124.8 233.79,111.85C230.12,98.83 226.59,85.76 223.01,72.72C218.44,56.1 213.87,39.47 209.29,22.85C209.07,22.06 208.81,21.27 208.49,20.52C207.82,18.92 206.58,17.93 204.86,17.91C202.98,17.89 201.59,18.87 200.85,20.63C200.58,21.26 200.39,21.92 200.21,22.58C196.97,34.01 193.73,45.44 190.49,56.88C187.07,68.98 183.6,81.06 180.27,93.18C178.58,99.34 177.17,105.57 175.57,111.76C174.64,115.35 173.6,118.91 172.59,122.47C168.76,135.95 164.93,149.43 161.09,162.9C160.92,163.49 160.78,164.11 160.49,164.65C159.64,166.22 158.33,167.13 156.51,167.14C152.11,167.16 147.7,167.17 143.3,167.14C140.94,167.12 139.35,165.74 139.26,163.6C139.23,162.8 139.48,161.97 139.7,161.19C140.72,157.62 141.78,154.07 142.82,150.51C147.38,134.81 151.93,119.11 156.48,103.41C162.56,82.43 168.64,61.45 174.72,40.47C176.96,32.75 179.2,25.03 181.45,17.32C182.07,15.2 182.84,13.15 183.93,11.22C187.05,5.68 191.81,2.35 197.92,0.89C198.98,0.64 200.09,0.57 201.17,0.39C201.7,0.3 202.22,0.15 202.74,0.02C204.1,0 205.48,0 206.85,0Z" style="fill:white;fill-rule:nonzero;"/>
            <path d="M317.09,390.93C316.71,390.64 316.34,390.33 315.95,390.06C314.48,389.05 313.7,387.69 313.72,385.89L313.72,214C313.72,213.52 313.76,213.03 313.72,212.56C313.52,210.17 315.41,207.97 318.31,207.7C318.72,207.66 319.13,207.68 319.55,207.68L342.25,207.68C343.22,207.68 344.18,207.7 345.09,208.09C346.88,208.85 348,210.12 348.1,212.14C348.13,212.69 348.11,213.24 348.11,213.79L348.11,385.07C348.3,387.42 347.45,389.23 345.36,390.41C345.13,390.54 344.95,390.77 344.75,390.95L317.09,390.95L317.09,390.93Z" style="fill:white;fill-rule:nonzero;"/>
            <path d="M345.17,0C345.56,0.09 345.94,0.25 346.33,0.27C350.1,0.49 353.88,0.6 357.65,0.9C360.73,1.15 363.8,1.56 366.86,1.97C370.94,2.51 375.02,3.12 379.1,3.7C379.3,3.73 379.52,3.72 379.72,3.76C381.95,4.26 382.62,5.27 382.59,7.13C382.53,10.64 382.59,14.15 382.57,17.65C382.55,19.81 381.86,20.5 379.75,20.57C379.34,20.58 378.92,20.6 378.51,20.56C376.05,20.34 373.59,20.09 371.12,19.89C368.79,19.7 366.46,19.53 364.13,19.41C359.81,19.19 355.48,18.97 351.15,18.82C347.3,18.68 343.46,18.57 339.61,18.57C335.89,18.57 332.22,19.12 328.62,20.09C318.7,22.77 311.7,28.91 307.25,38.07C304.86,42.99 303.45,48.22 302.61,53.61C301.77,58.99 301.47,64.4 301.48,69.84C301.51,80.78 301.4,91.71 301.52,102.65C301.6,109.89 302.5,117.04 304.69,123.98C306.4,129.41 308.89,134.42 312.66,138.75C316.26,142.89 320.67,145.84 325.8,147.72C328.97,148.88 332.25,149.56 335.62,149.91C340.29,150.4 344.95,150.24 349.62,150.03C351.27,149.96 352.92,149.95 354.57,149.86C359.17,149.62 363.76,149.36 368.36,149.09C371.79,148.88 375.22,148.63 378.64,148.39C378.71,148.39 378.78,148.37 378.85,148.37C381.7,148.56 382.9,148.95 383.05,152.21C383.18,155.16 383.12,158.12 383.08,161.08C383.05,163.37 381.78,164.8 379.66,165.45C378.48,165.81 377.26,166.03 376.04,166.22C371.02,167.02 365.99,167.7 360.91,168.05C357.48,168.29 354.05,168.39 350.61,168.45C347.86,168.5 345.12,168.58 342.37,168.64C338.24,168.73 334.12,168.51 330.03,167.91C318.33,166.19 307.8,161.88 299.13,153.61C294.29,149 290.58,143.58 287.78,137.53C284.9,131.32 283.07,124.79 281.98,118.04C281.22,113.28 280.72,108.5 280.69,103.68C280.64,96.8 280.58,89.93 280.54,83.05C280.52,79.68 280.5,76.31 280.54,72.94C280.6,68.89 280.6,64.83 280.84,60.78C281.39,51.47 283.04,42.37 286.58,33.68C289.31,26.99 293.07,20.97 298.19,15.82C303.77,10.21 310.38,6.27 317.82,3.66C322.51,2.02 327.35,1.06 332.27,0.46C333.63,0.29 335.02,0.32 336.39,0.22C336.71,0.2 337.02,0.04 337.34,-0.05L345.18,-0.05L345.17,0Z" style="fill:white;fill-rule:nonzero;"/>
        </g>
    </g>
</svg>
